<svg width="126" height="51" viewBox="0 0 126 51" fill="none" xmlns="http://www.w3.org/2000/svg">
<path d="M0.0189417 41.5454V37.1583C0.435658 37.5164 0.928142 37.8387 1.49639 38.1252C2.07727 38.4117 2.68972 38.6565 3.33373 38.8594C3.97775 39.0504 4.62177 39.1996 5.26578 39.3071C5.9098 39.4145 6.50331 39.4682 7.0463 39.4682C8.94047 39.4682 10.3485 39.1698 11.2703 38.5729C12.2048 37.976 12.672 37.1105 12.672 35.9765C12.672 35.3677 12.5141 34.8424 12.1984 34.4007C11.8954 33.9471 11.466 33.5352 10.9104 33.1652C10.3548 32.7951 9.69814 32.4429 8.94047 32.1087C8.19543 31.7625 7.39357 31.4044 6.53488 31.0343C5.61305 30.5687 4.75436 30.0972 3.95881 29.6197C3.16326 29.1422 2.46873 28.6169 1.87523 28.0439C1.29435 27.459 0.833434 26.8024 0.492483 26.0742C0.164161 25.346 0 24.4925 0 23.5136C0 22.3079 0.284125 21.2634 0.852375 20.38C1.43325 19.4847 2.19092 18.7505 3.12538 18.1775C4.07246 17.5926 5.14582 17.1628 6.34546 16.8882C7.5451 16.6017 8.76999 16.4585 10.0201 16.4585C12.8614 16.4585 14.9324 16.7629 16.233 17.3717V21.5797C14.6924 20.5292 12.7099 20.004 10.2853 20.004C9.61606 20.004 8.94678 20.0637 8.27751 20.183C7.62087 20.3024 7.02736 20.4994 6.49699 20.7739C5.97925 21.0485 5.55622 21.4007 5.2279 21.8304C4.89958 22.2602 4.73542 22.7795 4.73542 23.3883C4.73542 23.9613 4.8617 24.4567 5.11425 24.8745C5.36681 25.2923 5.73301 25.6743 6.21287 26.0205C6.70535 26.3667 7.29886 26.7069 7.99339 27.0412C8.70054 27.3635 9.51503 27.7157 10.4369 28.0977C11.3839 28.5632 12.2742 29.0527 13.1076 29.566C13.9537 30.0793 14.6924 30.6463 15.3238 31.2671C15.9678 31.8878 16.4729 32.5802 16.8391 33.3442C17.218 34.0963 17.4074 34.9558 17.4074 35.9228C17.4074 37.224 17.1296 38.3222 16.574 39.2175C16.0183 40.1129 15.267 40.8411 14.3199 41.4021C13.3854 41.9632 12.3058 42.3691 11.0809 42.6198C9.85598 42.8704 8.56164 42.9958 7.19783 42.9958C6.74324 42.9958 6.1813 42.96 5.51203 42.8883C4.85538 42.8287 4.1798 42.7332 3.48527 42.6018C2.79074 42.4825 2.1341 42.3333 1.51533 42.1542C0.896573 41.9751 0.397775 41.7722 0.0189417 41.5454Z" fill="white"/>
<path d="M26.3857 39.8622H26.31V51H21.9155V24.2299H26.31V27.453H26.3857C27.8885 25.0178 30.0857 23.8001 32.9775 23.8001C35.4399 23.8001 37.3593 24.6178 38.7357 26.2533C40.1121 27.8888 40.8004 30.0853 40.8004 32.8429C40.8004 35.8989 40.0238 38.3461 38.4705 40.1845C36.9173 42.0229 34.7958 42.9421 32.1061 42.9421C29.6311 42.9421 27.7243 41.9154 26.3857 39.8622ZM26.2721 32.628V34.9021C26.2721 36.2391 26.7204 37.3732 27.617 38.3043C28.5262 39.2354 29.6753 39.701 31.0643 39.701C32.6933 39.701 33.9687 39.1041 34.8906 37.9104C35.825 36.7047 36.2922 35.0274 36.2922 32.8787C36.2922 31.0761 35.8566 29.6675 34.9853 28.6528C34.1266 27.6261 32.9585 27.1128 31.4811 27.1128C29.9152 27.1128 28.6524 27.6381 27.6927 28.6886C26.7456 29.7391 26.2721 31.0522 26.2721 32.628Z" fill="white"/>
<path d="M53.8891 42.9958C50.8963 42.9958 48.5033 42.1423 46.7102 40.4352C44.9296 38.7162 44.0394 36.442 44.0394 33.6128C44.0394 30.5329 44.9675 28.1275 46.8238 26.3965C48.6927 24.6656 51.2057 23.8001 54.3626 23.8001C57.3933 23.8001 59.7547 24.6417 61.4468 26.3249C63.1389 28.0081 63.985 30.3419 63.985 33.3263C63.985 36.251 63.0695 38.5968 61.2384 40.3635C59.42 42.1184 56.9702 42.9958 53.8891 42.9958ZM54.0974 27.1128C52.38 27.1128 51.0226 27.6798 50.025 28.8139C49.0274 29.948 48.5286 31.5118 48.5286 33.5054C48.5286 35.4273 49.0337 36.9434 50.0439 38.0536C51.0541 39.1519 52.4053 39.701 54.0974 39.701C55.8274 39.701 57.1533 39.1579 58.0752 38.0715C59.0096 36.9852 59.4769 35.4393 59.4769 33.4338C59.4769 31.4163 59.0096 29.8585 58.0752 28.7602C57.1533 27.6619 55.8274 27.1128 54.0974 27.1128Z" fill="white"/>
<path d="M77.0737 42.9958C74.0809 42.9958 71.6879 42.1423 69.8948 40.4352C68.1143 38.7162 67.224 36.442 67.224 33.6128C67.224 30.5329 68.1521 28.1275 70.0084 26.3965C71.8773 24.6656 74.3903 23.8001 77.5472 23.8001C80.5779 23.8001 82.9393 24.6417 84.6314 26.3249C86.3235 28.0081 87.1696 30.3419 87.1696 33.3263C87.1696 36.251 86.2541 38.5968 84.423 40.3635C82.6046 42.1184 80.1548 42.9958 77.0737 42.9958ZM77.282 27.1128C75.5646 27.1128 74.2072 27.6798 73.2096 28.8139C72.212 29.948 71.7132 31.5118 71.7132 33.5054C71.7132 35.4273 72.2183 36.9434 73.2285 38.0536C74.2387 39.1519 75.5899 39.701 77.282 39.701C79.012 39.701 80.3379 39.1579 81.2598 38.0715C82.1942 36.9852 82.6615 35.4393 82.6615 33.4338C82.6615 31.4163 82.1942 29.8585 81.2598 28.7602C80.3379 27.6619 79.012 27.1128 77.282 27.1128Z" fill="white"/>
<path d="M90.4465 41.993V38.1432C92.0881 39.325 93.9002 39.9159 95.8828 39.9159C98.5346 39.9159 99.8605 39.1758 99.8605 37.6955C99.8605 37.2777 99.7468 36.9255 99.5195 36.639C99.2922 36.3406 98.9829 36.0779 98.5914 35.8511C98.2126 35.6243 97.758 35.4214 97.2276 35.2423C96.7099 35.0632 96.129 34.8603 95.485 34.6335C94.6894 34.3351 93.9696 34.0187 93.3256 33.6845C92.6942 33.3502 92.1639 32.9742 91.7345 32.5564C91.3178 32.1266 91.0021 31.6431 90.7874 31.1059C90.5728 30.5687 90.4654 29.942 90.4654 29.2258C90.4654 28.3424 90.6864 27.5664 91.1284 26.8979C91.5704 26.2175 92.1639 25.6504 92.9089 25.1968C93.6539 24.7313 94.5 24.3851 95.4471 24.1582C96.3942 23.9195 97.3728 23.8001 98.383 23.8001C100.176 23.8001 101.78 24.0568 103.194 24.5701V28.2051C101.83 27.3217 100.265 26.88 98.4967 26.88C97.9411 26.88 97.436 26.9337 96.9814 27.0412C96.5394 27.1486 96.1606 27.2978 95.8449 27.4888C95.5292 27.6798 95.2829 27.9126 95.1061 28.1872C94.9293 28.4498 94.841 28.7423 94.841 29.0646C94.841 29.4585 94.9293 29.7928 95.1061 30.0674C95.2829 30.3419 95.5418 30.5866 95.8828 30.8015C96.2363 31.0045 96.653 31.1955 97.1329 31.3745C97.6254 31.5417 98.1873 31.7267 98.8187 31.9296C99.6521 32.2519 100.397 32.5802 101.054 32.9145C101.723 33.2487 102.291 33.6307 102.759 34.0605C103.226 34.4783 103.586 34.9677 103.838 35.5288C104.091 36.0779 104.217 36.7345 104.217 37.4985C104.217 38.4297 103.99 39.2414 103.535 39.9338C103.081 40.6262 102.474 41.1992 101.717 41.6528C100.959 42.1064 100.081 42.4407 99.0839 42.6556C98.0989 42.8824 97.0571 42.9958 95.9585 42.9958C93.837 42.9958 91.9997 42.6615 90.4465 41.993Z" fill="white"/>
<path d="M126 42.566H120.431L112.892 33.7561H112.817V42.566H108.403V15.4199H112.817V32.628H112.892L120.014 24.2299H125.299L117.287 33.0756L126 42.566Z" fill="white"/>
<mask id="path-2-inside-1_585_2513" fill="white">
<path d="M59.8679 0L72.7048 13.1372L70.4599 15.2801L59.8679 4.19272L45.5411 21.0102L39.4797 22.9202L59.8679 0Z"/>
</mask>
<path d="M59.8679 0L76.5566 -16.3074L59.0666 -34.2065L42.4338 -15.508L59.8679 0ZM70.4599 15.2801L53.5881 31.3981L69.6997 48.2632L86.5712 32.1582L70.4599 15.2801ZM39.4797 22.9202L22.0457 7.41216L-34.1493 70.5862L46.4925 45.1748L39.4797 22.9202ZM59.8679 4.19272L76.7396 -11.9252L58.8761 -30.6242L42.1059 -10.9387L59.8679 4.19272ZM72.7048 13.1372L88.8161 30.0153L105.893 13.7147L89.3936 -3.17018L72.7048 13.1372ZM45.5411 21.0102L52.5538 43.2648L58.9524 41.2485L63.303 36.1416L45.5411 21.0102ZM56.9138 38.4282L77.3019 15.508L42.4338 -15.508L22.0457 7.41216L56.9138 38.4282ZM87.3317 -0.837803L76.7396 -11.9252L42.9961 20.3107L53.5881 31.3981L87.3317 -0.837803ZM43.1791 16.3074L56.0161 29.4446L89.3936 -3.17018L76.5566 -16.3074L43.1791 16.3074ZM56.5935 -3.74092L54.3486 -1.59797L86.5712 32.1582L88.8161 30.0153L56.5935 -3.74092ZM42.1059 -10.9387L27.7791 5.8788L63.303 36.1416L77.6298 19.3241L42.1059 -10.9387ZM38.5283 -1.24439L32.467 0.665628L46.4925 45.1748L52.5538 43.2648L38.5283 -1.24439Z" fill="#7CB8FF" mask="url(#path-2-inside-1_585_2513)"/>
<mask id="path-4-inside-2_585_2513" fill="white">
<path d="M76.8576 8.38538L89.317 21.243L83.2557 19.1001L76.8576 11.46L71.133 19.1001L64.3982 21.243L76.8576 8.38538Z"/>
</mask>
<path d="M76.8576 8.38538L118.749 -32.2086L76.8576 -75.4393L34.966 -32.2086L76.8576 8.38538ZM89.317 21.243L69.8731 76.2404L131.209 -19.351L89.317 21.243ZM64.3982 21.243L22.5066 -19.351L82.0854 76.8303L64.3982 21.243ZM76.8576 11.46L121.58 -25.9922L74.3167 -82.4304L30.1749 -23.5186L76.8576 11.46ZM71.133 19.1001L88.8202 74.6874L106.617 69.0247L117.816 54.0788L71.133 19.1001ZM83.2557 19.1001L38.5332 56.5524L48.7738 68.7809L63.8118 74.0975L83.2557 19.1001ZM34.966 48.9794L47.4254 61.8371L131.209 -19.351L118.749 -32.2086L34.966 48.9794ZM106.29 61.8371L118.749 48.9794L34.966 -32.2086L22.5066 -19.351L106.29 61.8371ZM30.1749 -23.5186L24.4504 -15.8786L117.816 54.0788L123.54 46.4387L30.1749 -23.5186ZM53.4458 -36.4871L46.711 -34.3442L82.0854 76.8303L88.8202 74.6874L53.4458 -36.4871ZM108.761 -33.7544L102.7 -35.8973L63.8118 74.0975L69.8731 76.2404L108.761 -33.7544ZM127.978 -18.3522L121.58 -25.9922L32.1351 48.9123L38.5332 56.5524L127.978 -18.3522Z" fill="#7CB8FF" mask="url(#path-4-inside-2_585_2513)"/>
</svg>
