<svg width="29" height="29" viewBox="0 0 29 29" fill="none" xmlns="http://www.w3.org/2000/svg">
<path fill-rule="evenodd" clip-rule="evenodd" d="M3.83374 4.10025C6.02167 1.91233 8.98913 0.683167 12.0833 0.683167C15.1775 0.683167 18.145 1.91233 20.3329 4.10025C22.5208 6.28818 23.75 9.25564 23.75 12.3498C23.75 14.9208 22.9014 17.4043 21.3592 19.4258L27.961 26.0277C28.5685 26.6351 28.5685 27.6201 27.961 28.2276C27.3536 28.835 26.3686 28.835 25.7612 28.2276L19.1593 21.6257C17.1378 23.1679 14.6543 24.0165 12.0833 24.0165C8.98913 24.0165 6.02167 22.7873 3.83374 20.5994C1.64582 18.4115 0.416656 15.444 0.416656 12.3498C0.416656 9.25564 1.64582 6.28818 3.83374 4.10025ZM12.0833 3.79428C9.81425 3.79428 7.63811 4.69566 6.03363 6.30014C4.42915 7.90462 3.52777 10.0808 3.52777 12.3498C3.52777 14.6189 4.42915 16.795 6.03363 18.3995C7.63811 20.004 9.81425 20.9054 12.0833 20.9054C14.3524 20.9054 16.5285 20.004 18.133 18.3995C19.7375 16.795 20.6389 14.6189 20.6389 12.3498C20.6389 10.0808 19.7375 7.90462 18.133 6.30014C16.5285 4.69566 14.3524 3.79428 12.0833 3.79428Z" fill="#0042AD"/>
</svg>
