<svg width="45" height="45" viewBox="0 0 45 45" fill="none" xmlns="http://www.w3.org/2000/svg">
<path fill-rule="evenodd" clip-rule="evenodd" d="M22.5 42.75C33.6836 42.75 42.75 33.6836 42.75 22.5C42.75 11.3164 33.6836 2.25 22.5 2.25C11.3164 2.25 2.25 11.3164 2.25 22.5C2.25 33.6836 11.3164 42.75 22.5 42.75ZM22.5 45C34.9267 45 45 34.9267 45 22.5C45 10.0733 34.9267 0 22.5 0C10.0733 0 0 10.0733 0 22.5C0 34.9267 10.0733 45 22.5 45Z" fill="white"/>
<path fill-rule="evenodd" clip-rule="evenodd" d="M34.1044 35.3512C25.5127 34.4625 19.9631 34.3792 11.3726 35.3298C11.0898 35.3628 10.8291 35.4989 10.6405 35.7121C10.4518 35.9252 10.3483 36.2005 10.35 36.4852C10.35 36.807 10.4839 37.1118 10.71 37.3233C15.399 41.6726 18.9517 43.638 22.4246 43.6503C25.9099 43.6627 29.6539 41.7131 34.7276 37.2918C34.8888 37.1484 35.0048 36.9612 35.0616 36.753C35.1184 36.5448 35.1135 36.3246 35.0475 36.1192C34.9815 35.9137 34.8572 35.7319 34.6897 35.5957C34.5223 35.4596 34.3189 35.3739 34.1044 35.3512ZM11.1262 33.0933C19.8967 32.1225 25.6095 32.2102 34.3372 33.1136C34.9878 33.1815 35.6045 33.4376 36.1118 33.8506C36.619 34.2636 36.9949 34.8155 37.1933 35.4388C37.3917 36.0621 37.4041 36.7298 37.2289 37.36C37.0537 37.9902 36.6986 38.5557 36.207 38.9872C31.0601 43.4737 26.856 45.0169 22.5 45C18.1316 44.9843 13.9522 43.3995 9.18111 38.9726C8.8395 38.6544 8.56719 38.2692 8.38117 37.841C8.19515 37.4128 8.09943 36.9509 8.09998 36.4841C8.09834 35.6453 8.40621 34.8354 8.96462 34.2096C9.52302 33.5837 10.2927 33.187 11.1262 33.0933Z" fill="white"/>
<path fill-rule="evenodd" clip-rule="evenodd" d="M22.5 24.75C24.2902 24.75 26.0071 24.0388 27.273 22.773C28.5388 21.5071 29.25 19.7902 29.25 18C29.25 16.2098 28.5388 14.4929 27.273 13.227C26.0071 11.9612 24.2902 11.25 22.5 11.25C20.7098 11.25 18.9929 11.9612 17.727 13.227C16.4612 14.4929 15.75 16.2098 15.75 18C15.75 19.7902 16.4612 21.5071 17.727 22.773C18.9929 24.0388 20.7098 24.75 22.5 24.75ZM22.5 27C24.8869 27 27.1761 26.0518 28.864 24.364C30.5518 22.6761 31.5 20.3869 31.5 18C31.5 15.6131 30.5518 13.3239 28.864 11.636C27.1761 9.94821 24.8869 9 22.5 9C20.1131 9 17.8239 9.94821 16.136 11.636C14.4482 13.3239 13.5 15.6131 13.5 18C13.5 20.3869 14.4482 22.6761 16.136 24.364C17.8239 26.0518 20.1131 27 22.5 27Z" fill="white"/>
</svg>
