<svg width="47" height="47" viewBox="0 0 47 47" fill="none" xmlns="http://www.w3.org/2000/svg">
<path d="M13.5 33.5L20.6975 26.3025M20.6975 26.3025C21.3918 27.0083 22.2189 27.5697 23.1312 27.9543C24.0435 28.3388 25.023 28.539 26.013 28.5431C27.0031 28.5473 27.9841 28.3554 28.8996 27.9785C29.8151 27.6015 30.6469 27.0471 31.3471 26.3471C32.0473 25.6471 32.6019 24.8154 32.979 23.9C33.3561 22.9846 33.5483 22.0036 33.5444 21.0135C33.5405 20.0235 33.3406 19.044 32.9562 18.1316C32.5719 17.2192 32.0107 16.3919 31.305 15.6975C29.8948 14.3097 27.9933 13.5354 26.0148 13.5432C24.0362 13.5511 22.141 14.3404 20.7418 15.7393C19.3425 17.1381 18.5528 19.0332 18.5445 21.0118C18.5362 22.9903 19.3101 24.892 20.6975 26.3025ZM46 23.5C46 26.4547 45.418 29.3806 44.2873 32.1104C43.1566 34.8402 41.4992 37.3206 39.4099 39.4099C37.3206 41.4992 34.8402 43.1566 32.1104 44.2873C29.3806 45.418 26.4547 46 23.5 46C20.5453 46 17.6194 45.418 14.8896 44.2873C12.1598 43.1566 9.67942 41.4992 7.5901 39.4099C5.50078 37.3206 3.84344 34.8402 2.71271 32.1104C1.58198 29.3806 1 26.4547 1 23.5C1 17.5326 3.37053 11.8097 7.5901 7.5901C11.8097 3.37053 17.5326 1 23.5 1C29.4674 1 35.1903 3.37053 39.4099 7.5901C43.6295 11.8097 46 17.5326 46 23.5Z" stroke="white" stroke-width="2" stroke-linecap="round" stroke-linejoin="round"/>
</svg>
